<mxfile host="65bd71144e">
    <diagram id="AtpVAntUMlNQj9BGaRGH" name="Complete git flow">
        <mxGraphModel dx="1216" dy="772" grid="1" gridSize="10" guides="1" tooltips="1" connect="1" arrows="1" fold="1" page="1" pageScale="1" pageWidth="850" pageHeight="1100" math="0" shadow="0">
            <root>
                <mxCell id="0"/>
                <mxCell id="1" parent="0"/>
                <mxCell id="7" value="Working Directory" style="rounded=1;whiteSpace=wrap;html=1;fontSize=20;fontColor=#FF8000;" parent="1" vertex="1">
                    <mxGeometry x="350" y="240" width="120" height="60" as="geometry"/>
                </mxCell>
                <mxCell id="8" value="Staging Area" style="rounded=1;whiteSpace=wrap;html=1;fontSize=20;fontColor=#FF8000;" parent="1" vertex="1">
                    <mxGeometry x="340" y="370" width="120" height="60" as="geometry"/>
                </mxCell>
                <mxCell id="9" value="Repo" style="rounded=1;whiteSpace=wrap;html=1;fontSize=20;fontColor=#FF8000;" parent="1" vertex="1">
                    <mxGeometry x="340" y="530" width="120" height="60" as="geometry"/>
                </mxCell>
                <mxCell id="10" value="Github" style="rounded=1;whiteSpace=wrap;html=1;fontSize=20;fontColor=#FF8000;" parent="1" vertex="1">
                    <mxGeometry x="340" y="690" width="120" height="60" as="geometry"/>
                </mxCell>
                <mxCell id="12" value="Complete git flow" style="text;html=1;strokeColor=none;fillColor=none;align=center;verticalAlign=middle;whiteSpace=wrap;rounded=0;fontSize=20;fontColor=#FF8000;" parent="1" vertex="1">
                    <mxGeometry x="80" y="30" width="190" height="60" as="geometry"/>
                </mxCell>
                <mxCell id="16" value="" style="edgeStyle=none;html=1;fontSize=20;fontColor=#FF8000;strokeColor=#33FF33;" parent="1" source="14" edge="1">
                    <mxGeometry relative="1" as="geometry">
                        <mxPoint x="410" y="230" as="targetPoint"/>
                    </mxGeometry>
                </mxCell>
                <mxCell id="14" value="&lt;font color=&quot;#33ff33&quot;&gt;git init&lt;/font&gt;" style="text;html=1;strokeColor=none;fillColor=none;align=center;verticalAlign=middle;whiteSpace=wrap;rounded=0;fontSize=20;fontColor=#FF8000;" parent="1" vertex="1">
                    <mxGeometry x="370" y="110" width="80" height="40" as="geometry"/>
                </mxCell>
                <mxCell id="19" value="" style="edgeStyle=none;html=1;strokeColor=#33FF33;fontColor=#33FF33;" parent="1" target="18" edge="1">
                    <mxGeometry relative="1" as="geometry">
                        <mxPoint x="330" y="270" as="sourcePoint"/>
                        <Array as="points">
                            <mxPoint x="190" y="270"/>
                        </Array>
                    </mxGeometry>
                </mxCell>
                <mxCell id="21" value="" style="edgeStyle=none;html=1;strokeColor=#33FF33;fontColor=#33FF33;" parent="1" source="18" edge="1">
                    <mxGeometry relative="1" as="geometry">
                        <mxPoint x="330" y="410" as="targetPoint"/>
                        <Array as="points">
                            <mxPoint x="190" y="410"/>
                        </Array>
                    </mxGeometry>
                </mxCell>
                <mxCell id="18" value="&lt;font style=&quot;font-size: 18px;&quot;&gt;git add&lt;/font&gt;" style="text;html=1;strokeColor=none;fillColor=none;align=center;verticalAlign=middle;whiteSpace=wrap;rounded=0;fontColor=#33FF33;" parent="1" vertex="1">
                    <mxGeometry x="150" y="310" width="80" height="60" as="geometry"/>
                </mxCell>
                <mxCell id="27" value="" style="edgeStyle=none;html=1;strokeColor=#33FF33;fontSize=18;fontColor=#33FF33;" parent="1" edge="1">
                    <mxGeometry relative="1" as="geometry">
                        <mxPoint x="480" y="400" as="sourcePoint"/>
                        <mxPoint x="620" y="450" as="targetPoint"/>
                        <Array as="points">
                            <mxPoint x="620" y="400"/>
                        </Array>
                    </mxGeometry>
                </mxCell>
                <mxCell id="25" value="git commit" style="text;html=1;strokeColor=none;fillColor=none;align=center;verticalAlign=middle;whiteSpace=wrap;rounded=0;fontSize=18;fontColor=#33FF33;" parent="1" vertex="1">
                    <mxGeometry x="570" y="460" width="100" height="40" as="geometry"/>
                </mxCell>
                <mxCell id="28" value="" style="edgeStyle=none;html=1;strokeColor=#33FF33;fontSize=18;fontColor=#33FF33;" parent="1" edge="1">
                    <mxGeometry relative="1" as="geometry">
                        <mxPoint x="620" y="510" as="sourcePoint"/>
                        <mxPoint x="480" y="560" as="targetPoint"/>
                        <Array as="points">
                            <mxPoint x="620" y="560"/>
                        </Array>
                    </mxGeometry>
                </mxCell>
                <mxCell id="29" value="git push" style="text;html=1;strokeColor=none;fillColor=none;align=center;verticalAlign=middle;whiteSpace=wrap;rounded=0;fontSize=18;fontColor=#33FF33;" parent="1" vertex="1">
                    <mxGeometry x="130" y="630" width="100" height="30" as="geometry"/>
                </mxCell>
                <mxCell id="30" value="" style="edgeStyle=none;html=1;strokeColor=#33FF33;fontColor=#33FF33;" parent="1" edge="1">
                    <mxGeometry relative="1" as="geometry">
                        <mxPoint x="180" y="680" as="sourcePoint"/>
                        <mxPoint x="320" y="720" as="targetPoint"/>
                        <Array as="points">
                            <mxPoint x="180" y="720"/>
                        </Array>
                    </mxGeometry>
                </mxCell>
                <mxCell id="31" value="" style="edgeStyle=none;html=1;strokeColor=#33FF33;fontColor=#33FF33;" parent="1" edge="1">
                    <mxGeometry relative="1" as="geometry">
                        <mxPoint x="320" y="560" as="sourcePoint"/>
                        <mxPoint x="180" y="600" as="targetPoint"/>
                        <Array as="points">
                            <mxPoint x="180" y="560"/>
                        </Array>
                    </mxGeometry>
                </mxCell>
            </root>
        </mxGraphModel>
    </diagram>
    <diagram id="68Ndf9zPx25A49umkjuT" name="Commit flow">
        <mxGraphModel dx="896" dy="477" grid="1" gridSize="10" guides="1" tooltips="1" connect="1" arrows="1" fold="1" page="1" pageScale="1" pageWidth="850" pageHeight="1100" math="0" shadow="0">
            <root>
                <mxCell id="0"/>
                <mxCell id="1" parent="0"/>
                <mxCell id="3P1RrfR2wP0CCknRlFfD-3" value="" style="edgeStyle=none;html=1;strokeColor=#33FF33;fontSize=18;fontColor=#33FF33;entryX=0;entryY=0.5;entryDx=0;entryDy=0;entryPerimeter=0;" edge="1" parent="1" source="3P1RrfR2wP0CCknRlFfD-1" target="3P1RrfR2wP0CCknRlFfD-2">
                    <mxGeometry relative="1" as="geometry">
                        <mxPoint x="330" y="140" as="targetPoint"/>
                        <Array as="points">
                            <mxPoint x="300" y="140"/>
                        </Array>
                    </mxGeometry>
                </mxCell>
                <mxCell id="3P1RrfR2wP0CCknRlFfD-1" value="&lt;font color=&quot;#ff8000&quot;&gt;Write&amp;nbsp;&lt;/font&gt;" style="rounded=1;whiteSpace=wrap;html=1;fontSize=18;fontColor=#33FF33;" vertex="1" parent="1">
                    <mxGeometry x="100" y="110" width="120" height="60" as="geometry"/>
                </mxCell>
                <mxCell id="3P1RrfR2wP0CCknRlFfD-5" value="" style="edgeStyle=none;html=1;strokeColor=#33FF33;fontSize=18;fontColor=#33FF33;" edge="1" parent="1" source="3P1RrfR2wP0CCknRlFfD-2" target="3P1RrfR2wP0CCknRlFfD-4">
                    <mxGeometry relative="1" as="geometry"/>
                </mxCell>
                <mxCell id="3P1RrfR2wP0CCknRlFfD-2" value="&lt;font color=&quot;#ff8000&quot;&gt;Add&lt;/font&gt;" style="rounded=1;whiteSpace=wrap;html=1;fontSize=18;fontColor=#33FF33;" vertex="1" parent="1">
                    <mxGeometry x="340" y="110" width="120" height="60" as="geometry"/>
                </mxCell>
                <mxCell id="3P1RrfR2wP0CCknRlFfD-4" value="&lt;font color=&quot;#ff8000&quot;&gt;Commit&lt;/font&gt;" style="rounded=1;whiteSpace=wrap;html=1;fontSize=18;fontColor=#33FF33;" vertex="1" parent="1">
                    <mxGeometry x="590" y="110" width="120" height="60" as="geometry"/>
                </mxCell>
                <mxCell id="lIHBPAQMrglXQsvkq5QD-1" value="&lt;font style=&quot;font-size: 21px;&quot; color=&quot;#33ff33&quot;&gt;Commit flow&lt;/font&gt;" style="text;html=1;strokeColor=none;fillColor=none;align=center;verticalAlign=middle;whiteSpace=wrap;rounded=0;fontSize=18;fontColor=#FF8000;" vertex="1" parent="1">
                    <mxGeometry x="80" y="40" width="180" height="30" as="geometry"/>
                </mxCell>
            </root>
        </mxGraphModel>
    </diagram>
    <diagram id="Epn4KW1Oo9MGJ8LItP11" name="Blob Object">
        <mxGraphModel dx="159" dy="355" grid="1" gridSize="10" guides="1" tooltips="1" connect="1" arrows="1" fold="1" page="1" pageScale="1" pageWidth="850" pageHeight="1100" math="0" shadow="0">
            <root>
                <mxCell id="0"/>
                <mxCell id="1" parent="0"/>
                <mxCell id="ZAMbKwVIJREhB8xd48t3-6" value="" style="edgeStyle=none;html=1;fontSize=13;fontColor=#FF8000;strokeColor=#FF8000;strokeWidth=3;" edge="1" parent="1" source="ZAMbKwVIJREhB8xd48t3-4" target="ZAMbKwVIJREhB8xd48t3-5">
                    <mxGeometry relative="1" as="geometry"/>
                </mxCell>
                <mxCell id="ZAMbKwVIJREhB8xd48t3-4" value="&lt;font color=&quot;#ff8000&quot; style=&quot;&quot;&gt;&lt;span style=&quot;font-size: 16px;&quot;&gt;commit&lt;/span&gt;&lt;br&gt;&lt;span style=&quot;font-size: 13px;&quot;&gt;Tree&lt;br&gt;&lt;/span&gt;&lt;span style=&quot;font-size: 16px;&quot;&gt;&lt;div style=&quot;&quot;&gt;&lt;span style=&quot;background-color: initial;&quot;&gt;&amp;nbsp;- - - - - - - - - - - - -&lt;/span&gt;&lt;/div&gt;&lt;/span&gt;&lt;span style=&quot;font-size: 16px;&quot;&gt;- - - - - - - - - - - - -&lt;br&gt;&lt;/span&gt;&lt;span style=&quot;font-size: 16px;&quot;&gt;- - - - - - - - - - - - -&lt;br&gt;&lt;/span&gt;&lt;/font&gt;" style="rounded=1;whiteSpace=wrap;html=1;align=center;strokeColor=#FF8000;strokeWidth=3;" vertex="1" parent="1">
                    <mxGeometry x="50" y="155" width="160" height="170" as="geometry"/>
                </mxCell>
                <mxCell id="ZAMbKwVIJREhB8xd48t3-8" value="" style="edgeStyle=none;html=1;strokeColor=#FF8000;strokeWidth=3;fontSize=13;fontColor=#FF8000;" edge="1" parent="1" source="ZAMbKwVIJREhB8xd48t3-5">
                    <mxGeometry relative="1" as="geometry">
                        <mxPoint x="540" y="240" as="targetPoint"/>
                    </mxGeometry>
                </mxCell>
                <mxCell id="ZAMbKwVIJREhB8xd48t3-5" value="&lt;div style=&quot;&quot;&gt;&lt;font color=&quot;#ff8000&quot;&gt;&lt;span style=&quot;font-size: 16px;&quot;&gt;&lt;br&gt;&lt;/span&gt;&lt;/font&gt;&lt;/div&gt;&lt;font style=&quot;font-size: 16px;&quot;&gt;&lt;div style=&quot;&quot;&gt;&lt;font style=&quot;background-color: initial;&quot;&gt;&lt;span style=&quot;color: rgb(255, 128, 0);&quot;&gt;tree&lt;/span&gt;&lt;/font&gt;&lt;span style=&quot;font-size: 12px; color: rgb(255, 128, 0);&quot;&gt;&lt;span style=&quot;font-size: 13px;&quot;&gt;&amp;nbsp;&lt;/span&gt;&lt;/span&gt;&lt;/div&gt;&lt;/font&gt;&lt;span style=&quot;border-color: rgb(0, 0, 0); color: rgb(255, 128, 0); font-family: Helvetica; font-style: normal; font-variant-ligatures: normal; font-variant-caps: normal; font-weight: 400; letter-spacing: normal; orphans: 2; text-indent: 0px; text-transform: none; widows: 2; word-spacing: 0px; -webkit-text-stroke-width: 0px; background-color: rgb(42, 37, 47); text-decoration-thickness: initial; text-decoration-style: initial; text-decoration-color: initial;&quot;&gt;&lt;div style=&quot;&quot;&gt;&lt;font style=&quot;font-size: 11px;&quot;&gt;Blob&amp;nbsp;&lt;/font&gt;&lt;span style=&quot;font-size: 16px; background-color: initial;&quot;&gt;&amp;nbsp;&lt;/span&gt;&lt;/div&gt;&lt;/span&gt;&lt;span style=&quot;border-color: rgb(0, 0, 0); color: rgb(255, 128, 0); font-family: Helvetica; font-style: normal; font-variant-ligatures: normal; font-variant-caps: normal; font-weight: 400; letter-spacing: normal; orphans: 2; text-indent: 0px; text-transform: none; widows: 2; word-spacing: 0px; -webkit-text-stroke-width: 0px; background-color: rgb(42, 37, 47); text-decoration-thickness: initial; text-decoration-style: initial; text-decoration-color: initial; font-size: 16px;&quot;&gt;&lt;div style=&quot;&quot;&gt;- - - - - - - -&amp;nbsp;&lt;/div&gt;&lt;/span&gt;&lt;span style=&quot;border-color: rgb(0, 0, 0); color: rgb(255, 128, 0); font-family: Helvetica; font-style: normal; font-variant-ligatures: normal; font-variant-caps: normal; font-weight: 400; letter-spacing: normal; orphans: 2; text-indent: 0px; text-transform: none; widows: 2; word-spacing: 0px; -webkit-text-stroke-width: 0px; background-color: rgb(42, 37, 47); text-decoration-thickness: initial; text-decoration-style: initial; text-decoration-color: initial; font-size: 16px;&quot;&gt;&lt;div style=&quot;&quot;&gt;- - - - - - - -&amp;nbsp;&lt;/div&gt;&lt;/span&gt;" style="whiteSpace=wrap;html=1;rounded=1;strokeWidth=3;strokeColor=#FF8000;align=center;" vertex="1" parent="1">
                    <mxGeometry x="330" y="170" width="120" height="140" as="geometry"/>
                </mxCell>
                <mxCell id="ZAMbKwVIJREhB8xd48t3-7" value="&lt;div style=&quot;text-align: justify;&quot;&gt;&lt;span style=&quot;font-size: 15px; color: rgb(255, 128, 0); background-color: initial;&quot;&gt;&amp;nbsp; &amp;nbsp;blob&lt;/span&gt;&lt;/div&gt;&lt;div style=&quot;text-align: justify;&quot;&gt;&lt;span style=&quot;white-space: pre;&quot;&gt;&#9;&lt;/span&gt;&lt;span style=&quot;font-size: 15px; color: rgb(255, 128, 0); background-color: initial;&quot;&gt;&lt;br&gt;&lt;/span&gt;&lt;/div&gt;&lt;div style=&quot;text-align: justify;&quot;&gt;&lt;span style=&quot;white-space: pre;&quot;&gt;&#9;&lt;/span&gt;&lt;font color=&quot;#ff8000&quot;&gt;console.log(&quot;Raso&quot;)&lt;/font&gt;&lt;br&gt;&lt;/div&gt;&lt;div style=&quot;text-align: justify;&quot;&gt;&lt;font color=&quot;#ff8000&quot;&gt;&lt;span style=&quot;white-space: pre;&quot;&gt;&#9;&lt;/span&gt;function name() {&lt;br&gt;&lt;/font&gt;&lt;/div&gt;&lt;div style=&quot;text-align: justify;&quot;&gt;&lt;font color=&quot;#ff8000&quot;&gt;&lt;span style=&quot;white-space: pre;&quot;&gt;&#9;&lt;/span&gt;&amp;nbsp; &amp;nbsp; &amp;nbsp;let name = 'Sourabh'&lt;br&gt;&lt;/font&gt;&lt;/div&gt;&lt;div style=&quot;text-align: justify;&quot;&gt;&lt;font color=&quot;#ff8000&quot;&gt;&lt;span style=&quot;white-space: pre;&quot;&gt;&#9;&lt;/span&gt;}&lt;br&gt;&lt;/font&gt;&lt;/div&gt;" style="whiteSpace=wrap;html=1;rounded=1;strokeWidth=3;strokeColor=#FF8000;align=center;" vertex="1" parent="1">
                    <mxGeometry x="540" y="160" width="180" height="180" as="geometry"/>
                </mxCell>
            </root>
        </mxGraphModel>
    </diagram>
    <diagram id="hWFT3ugI4uwXtDEk6Afz" name="branch-in-git">
        <mxGraphModel dx="896" dy="501" grid="1" gridSize="10" guides="1" tooltips="1" connect="1" arrows="1" fold="1" page="1" pageScale="1" pageWidth="850" pageHeight="1100" math="0" shadow="0">
            <root>
                <mxCell id="0"/>
                <mxCell id="1" parent="0"/>
                <mxCell id="ZHSf9_MdMFQYKm6YHJ1n-2" value="&lt;font color=&quot;#33ff33&quot; style=&quot;font-size: 23px;&quot;&gt;Git Branch&lt;/font&gt;" style="text;html=1;strokeColor=none;fillColor=none;align=center;verticalAlign=middle;whiteSpace=wrap;rounded=0;" parent="1" vertex="1">
                    <mxGeometry x="90" y="50" width="170" height="40" as="geometry"/>
                </mxCell>
                <mxCell id="ZHSf9_MdMFQYKm6YHJ1n-9" value="" style="edgeStyle=none;html=1;fontSize=23;fontColor=#FF8000;strokeWidth=3;strokeColor=#FF8000;" parent="1" source="ZHSf9_MdMFQYKm6YHJ1n-3" target="ZHSf9_MdMFQYKm6YHJ1n-8" edge="1">
                    <mxGeometry relative="1" as="geometry"/>
                </mxCell>
                <mxCell id="ZHSf9_MdMFQYKm6YHJ1n-3" value="" style="ellipse;whiteSpace=wrap;html=1;aspect=fixed;fontSize=23;fontColor=#FF8000;strokeColor=#FF8000;strokeWidth=3;" parent="1" vertex="1">
                    <mxGeometry x="400" y="130" width="10" height="10" as="geometry"/>
                </mxCell>
                <mxCell id="ZHSf9_MdMFQYKm6YHJ1n-11" value="" style="edgeStyle=none;html=1;strokeColor=#FF8000;strokeWidth=3;fontSize=23;fontColor=#33FF33;" parent="1" source="ZHSf9_MdMFQYKm6YHJ1n-8" target="ZHSf9_MdMFQYKm6YHJ1n-10" edge="1">
                    <mxGeometry relative="1" as="geometry"/>
                </mxCell>
                <mxCell id="ZHSf9_MdMFQYKm6YHJ1n-25" value="" style="edgeStyle=none;html=1;strokeColor=#0000FF;strokeWidth=3;fontSize=23;fontColor=#33FF33;" parent="1" source="ZHSf9_MdMFQYKm6YHJ1n-8" target="ZHSf9_MdMFQYKm6YHJ1n-24" edge="1">
                    <mxGeometry relative="1" as="geometry"/>
                </mxCell>
                <mxCell id="ZHSf9_MdMFQYKm6YHJ1n-33" value="" style="edgeStyle=none;html=1;strokeColor=#33FF33;strokeWidth=3;fontSize=23;fontColor=#33FF33;" parent="1" source="ZHSf9_MdMFQYKm6YHJ1n-8" target="ZHSf9_MdMFQYKm6YHJ1n-32" edge="1">
                    <mxGeometry relative="1" as="geometry"/>
                </mxCell>
                <mxCell id="ZHSf9_MdMFQYKm6YHJ1n-8" value="" style="ellipse;whiteSpace=wrap;html=1;aspect=fixed;fontSize=23;fontColor=#FF8000;strokeColor=#FF8000;strokeWidth=3;" parent="1" vertex="1">
                    <mxGeometry x="400" y="220" width="10" height="10" as="geometry"/>
                </mxCell>
                <mxCell id="ZHSf9_MdMFQYKm6YHJ1n-13" value="" style="edgeStyle=none;html=1;strokeColor=#FF8000;strokeWidth=3;fontSize=23;fontColor=#33FF33;" parent="1" source="ZHSf9_MdMFQYKm6YHJ1n-10" target="ZHSf9_MdMFQYKm6YHJ1n-12" edge="1">
                    <mxGeometry relative="1" as="geometry"/>
                </mxCell>
                <mxCell id="ZHSf9_MdMFQYKm6YHJ1n-10" value="" style="ellipse;whiteSpace=wrap;html=1;aspect=fixed;fontSize=23;fontColor=#FF8000;strokeColor=#FF8000;strokeWidth=3;" parent="1" vertex="1">
                    <mxGeometry x="400" y="310" width="10" height="10" as="geometry"/>
                </mxCell>
                <mxCell id="ZHSf9_MdMFQYKm6YHJ1n-15" value="" style="edgeStyle=none;html=1;strokeColor=#FF8000;strokeWidth=3;fontSize=23;fontColor=#33FF33;" parent="1" source="ZHSf9_MdMFQYKm6YHJ1n-12" target="ZHSf9_MdMFQYKm6YHJ1n-14" edge="1">
                    <mxGeometry relative="1" as="geometry"/>
                </mxCell>
                <mxCell id="ZHSf9_MdMFQYKm6YHJ1n-12" value="" style="ellipse;whiteSpace=wrap;html=1;aspect=fixed;fontSize=23;fontColor=#FF8000;strokeColor=#FF8000;strokeWidth=3;" parent="1" vertex="1">
                    <mxGeometry x="400" y="400" width="10" height="10" as="geometry"/>
                </mxCell>
                <mxCell id="ZHSf9_MdMFQYKm6YHJ1n-17" value="" style="edgeStyle=none;html=1;strokeColor=#FF8000;strokeWidth=3;fontSize=23;fontColor=#33FF33;" parent="1" source="ZHSf9_MdMFQYKm6YHJ1n-14" target="ZHSf9_MdMFQYKm6YHJ1n-16" edge="1">
                    <mxGeometry relative="1" as="geometry"/>
                </mxCell>
                <mxCell id="ZHSf9_MdMFQYKm6YHJ1n-14" value="" style="ellipse;whiteSpace=wrap;html=1;aspect=fixed;fontSize=23;fontColor=#FF8000;strokeColor=#FF8000;strokeWidth=3;" parent="1" vertex="1">
                    <mxGeometry x="400" y="490" width="10" height="10" as="geometry"/>
                </mxCell>
                <mxCell id="ZHSf9_MdMFQYKm6YHJ1n-19" value="" style="edgeStyle=none;html=1;strokeColor=#FF8000;strokeWidth=3;fontSize=23;fontColor=#33FF33;" parent="1" source="ZHSf9_MdMFQYKm6YHJ1n-16" target="ZHSf9_MdMFQYKm6YHJ1n-18" edge="1">
                    <mxGeometry relative="1" as="geometry"/>
                </mxCell>
                <mxCell id="ZHSf9_MdMFQYKm6YHJ1n-16" value="" style="ellipse;whiteSpace=wrap;html=1;aspect=fixed;fontSize=23;fontColor=#FF8000;strokeColor=#FF8000;strokeWidth=3;" parent="1" vertex="1">
                    <mxGeometry x="400" y="580" width="10" height="10" as="geometry"/>
                </mxCell>
                <mxCell id="ZHSf9_MdMFQYKm6YHJ1n-21" value="" style="edgeStyle=none;html=1;strokeColor=#FF8000;strokeWidth=3;fontSize=23;fontColor=#33FF33;" parent="1" source="ZHSf9_MdMFQYKm6YHJ1n-18" target="ZHSf9_MdMFQYKm6YHJ1n-20" edge="1">
                    <mxGeometry relative="1" as="geometry"/>
                </mxCell>
                <mxCell id="ZHSf9_MdMFQYKm6YHJ1n-18" value="" style="ellipse;whiteSpace=wrap;html=1;aspect=fixed;fontSize=23;fontColor=#FF8000;strokeColor=#FF8000;strokeWidth=3;" parent="1" vertex="1">
                    <mxGeometry x="400" y="670" width="10" height="10" as="geometry"/>
                </mxCell>
                <mxCell id="ZHSf9_MdMFQYKm6YHJ1n-49" value="" style="edgeStyle=none;html=1;strokeColor=#FF8000;strokeWidth=3;fontSize=23;fontColor=#33FF33;" parent="1" source="ZHSf9_MdMFQYKm6YHJ1n-20" target="ZHSf9_MdMFQYKm6YHJ1n-48" edge="1">
                    <mxGeometry relative="1" as="geometry"/>
                </mxCell>
                <mxCell id="ZHSf9_MdMFQYKm6YHJ1n-20" value="" style="ellipse;whiteSpace=wrap;html=1;aspect=fixed;fontSize=23;fontColor=#FF8000;strokeColor=#FF8000;strokeWidth=3;" parent="1" vertex="1">
                    <mxGeometry x="400" y="760" width="10" height="10" as="geometry"/>
                </mxCell>
                <mxCell id="ZHSf9_MdMFQYKm6YHJ1n-27" value="" style="edgeStyle=none;html=1;strokeColor=#0000FF;strokeWidth=3;fontSize=23;fontColor=#33FF33;" parent="1" source="ZHSf9_MdMFQYKm6YHJ1n-24" target="ZHSf9_MdMFQYKm6YHJ1n-26" edge="1">
                    <mxGeometry relative="1" as="geometry"/>
                </mxCell>
                <mxCell id="ZHSf9_MdMFQYKm6YHJ1n-24" value="" style="ellipse;whiteSpace=wrap;html=1;aspect=fixed;fontSize=23;fontColor=#FF8000;strokeColor=#0000FF;strokeWidth=3;" parent="1" vertex="1">
                    <mxGeometry x="270" y="310" width="10" height="10" as="geometry"/>
                </mxCell>
                <mxCell id="ZHSf9_MdMFQYKm6YHJ1n-29" value="" style="edgeStyle=none;html=1;strokeColor=#0000FF;strokeWidth=3;fontSize=23;fontColor=#33FF33;" parent="1" source="ZHSf9_MdMFQYKm6YHJ1n-26" target="ZHSf9_MdMFQYKm6YHJ1n-28" edge="1">
                    <mxGeometry relative="1" as="geometry"/>
                </mxCell>
                <mxCell id="ZHSf9_MdMFQYKm6YHJ1n-26" value="" style="ellipse;whiteSpace=wrap;html=1;aspect=fixed;fontSize=23;fontColor=#FF8000;strokeColor=#0000FF;strokeWidth=3;" parent="1" vertex="1">
                    <mxGeometry x="270" y="400" width="10" height="10" as="geometry"/>
                </mxCell>
                <mxCell id="ZHSf9_MdMFQYKm6YHJ1n-31" value="" style="edgeStyle=none;html=1;strokeColor=#0000FF;strokeWidth=3;fontSize=23;fontColor=#33FF33;" parent="1" source="ZHSf9_MdMFQYKm6YHJ1n-28" target="ZHSf9_MdMFQYKm6YHJ1n-30" edge="1">
                    <mxGeometry relative="1" as="geometry"/>
                </mxCell>
                <mxCell id="ZHSf9_MdMFQYKm6YHJ1n-28" value="" style="ellipse;whiteSpace=wrap;html=1;aspect=fixed;fontSize=23;fontColor=#FF8000;strokeColor=#0000FF;strokeWidth=3;" parent="1" vertex="1">
                    <mxGeometry x="270" y="490" width="10" height="10" as="geometry"/>
                </mxCell>
                <mxCell id="ZHSf9_MdMFQYKm6YHJ1n-30" value="" style="ellipse;whiteSpace=wrap;html=1;aspect=fixed;fontSize=23;fontColor=#FF8000;strokeColor=#0000FF;strokeWidth=3;" parent="1" vertex="1">
                    <mxGeometry x="270" y="580" width="10" height="10" as="geometry"/>
                </mxCell>
                <mxCell id="ZHSf9_MdMFQYKm6YHJ1n-35" value="" style="edgeStyle=none;html=1;strokeColor=#33FF33;strokeWidth=3;fontSize=23;fontColor=#33FF33;" parent="1" source="ZHSf9_MdMFQYKm6YHJ1n-32" target="ZHSf9_MdMFQYKm6YHJ1n-34" edge="1">
                    <mxGeometry relative="1" as="geometry"/>
                </mxCell>
                <mxCell id="ZHSf9_MdMFQYKm6YHJ1n-32" value="" style="ellipse;whiteSpace=wrap;html=1;aspect=fixed;fontSize=23;fontColor=#FF8000;strokeColor=#33FF33;strokeWidth=3;" parent="1" vertex="1">
                    <mxGeometry x="520" y="310" width="10" height="10" as="geometry"/>
                </mxCell>
                <mxCell id="ZHSf9_MdMFQYKm6YHJ1n-37" value="" style="edgeStyle=none;html=1;strokeColor=#33FF33;strokeWidth=3;fontSize=23;fontColor=#33FF33;" parent="1" source="ZHSf9_MdMFQYKm6YHJ1n-34" target="ZHSf9_MdMFQYKm6YHJ1n-36" edge="1">
                    <mxGeometry relative="1" as="geometry"/>
                </mxCell>
                <mxCell id="ZHSf9_MdMFQYKm6YHJ1n-34" value="" style="ellipse;whiteSpace=wrap;html=1;aspect=fixed;fontSize=23;fontColor=#FF8000;strokeColor=#33FF33;strokeWidth=3;" parent="1" vertex="1">
                    <mxGeometry x="520" y="400" width="10" height="10" as="geometry"/>
                </mxCell>
                <mxCell id="ZHSf9_MdMFQYKm6YHJ1n-39" value="" style="edgeStyle=none;html=1;strokeColor=#33FF33;strokeWidth=3;fontSize=23;fontColor=#33FF33;" parent="1" source="ZHSf9_MdMFQYKm6YHJ1n-36" target="ZHSf9_MdMFQYKm6YHJ1n-38" edge="1">
                    <mxGeometry relative="1" as="geometry"/>
                </mxCell>
                <mxCell id="ZHSf9_MdMFQYKm6YHJ1n-43" value="" style="edgeStyle=none;html=1;strokeColor=#00FFFF;strokeWidth=3;fontSize=23;fontColor=#33FF33;" parent="1" source="ZHSf9_MdMFQYKm6YHJ1n-36" target="ZHSf9_MdMFQYKm6YHJ1n-42" edge="1">
                    <mxGeometry relative="1" as="geometry"/>
                </mxCell>
                <mxCell id="ZHSf9_MdMFQYKm6YHJ1n-36" value="" style="ellipse;whiteSpace=wrap;html=1;aspect=fixed;fontSize=23;fontColor=#FF8000;strokeColor=#33FF33;strokeWidth=3;" parent="1" vertex="1">
                    <mxGeometry x="520" y="490" width="10" height="10" as="geometry"/>
                </mxCell>
                <mxCell id="ZHSf9_MdMFQYKm6YHJ1n-41" value="" style="edgeStyle=none;html=1;strokeColor=#33FF33;strokeWidth=3;fontSize=23;fontColor=#33FF33;" parent="1" source="ZHSf9_MdMFQYKm6YHJ1n-38" target="ZHSf9_MdMFQYKm6YHJ1n-40" edge="1">
                    <mxGeometry relative="1" as="geometry"/>
                </mxCell>
                <mxCell id="ZHSf9_MdMFQYKm6YHJ1n-38" value="" style="ellipse;whiteSpace=wrap;html=1;aspect=fixed;fontSize=23;fontColor=#FF8000;strokeColor=#33FF33;strokeWidth=3;" parent="1" vertex="1">
                    <mxGeometry x="520" y="580" width="10" height="10" as="geometry"/>
                </mxCell>
                <mxCell id="ZHSf9_MdMFQYKm6YHJ1n-47" value="" style="edgeStyle=none;html=1;strokeColor=#33FF33;strokeWidth=3;fontSize=23;fontColor=#33FF33;" parent="1" source="ZHSf9_MdMFQYKm6YHJ1n-40" target="ZHSf9_MdMFQYKm6YHJ1n-46" edge="1">
                    <mxGeometry relative="1" as="geometry"/>
                </mxCell>
                <mxCell id="ZHSf9_MdMFQYKm6YHJ1n-40" value="" style="ellipse;whiteSpace=wrap;html=1;aspect=fixed;fontSize=23;fontColor=#FF8000;strokeColor=#33FF33;strokeWidth=3;" parent="1" vertex="1">
                    <mxGeometry x="520" y="670" width="10" height="10" as="geometry"/>
                </mxCell>
                <mxCell id="ZHSf9_MdMFQYKm6YHJ1n-45" value="" style="edgeStyle=none;html=1;strokeColor=#00FFFF;strokeWidth=3;fontSize=23;fontColor=#33FF33;" parent="1" source="ZHSf9_MdMFQYKm6YHJ1n-42" target="ZHSf9_MdMFQYKm6YHJ1n-44" edge="1">
                    <mxGeometry relative="1" as="geometry"/>
                </mxCell>
                <mxCell id="ZHSf9_MdMFQYKm6YHJ1n-42" value="" style="ellipse;whiteSpace=wrap;html=1;aspect=fixed;fontSize=23;fontColor=#FF8000;strokeColor=#00FFFF;strokeWidth=3;" parent="1" vertex="1">
                    <mxGeometry x="620" y="580" width="10" height="10" as="geometry"/>
                </mxCell>
                <mxCell id="ZHSf9_MdMFQYKm6YHJ1n-44" value="" style="ellipse;whiteSpace=wrap;html=1;aspect=fixed;fontSize=23;fontColor=#FF8000;strokeColor=#00FFFF;strokeWidth=3;" parent="1" vertex="1">
                    <mxGeometry x="620" y="670" width="10" height="10" as="geometry"/>
                </mxCell>
                <mxCell id="ZHSf9_MdMFQYKm6YHJ1n-46" value="" style="ellipse;whiteSpace=wrap;html=1;aspect=fixed;fontSize=23;fontColor=#FF8000;strokeColor=#33FF33;strokeWidth=3;" parent="1" vertex="1">
                    <mxGeometry x="520" y="760" width="10" height="10" as="geometry"/>
                </mxCell>
                <mxCell id="ZHSf9_MdMFQYKm6YHJ1n-51" value="" style="edgeStyle=none;html=1;strokeColor=#FF8000;strokeWidth=3;fontSize=23;fontColor=#33FF33;" parent="1" source="ZHSf9_MdMFQYKm6YHJ1n-48" target="ZHSf9_MdMFQYKm6YHJ1n-50" edge="1">
                    <mxGeometry relative="1" as="geometry"/>
                </mxCell>
                <mxCell id="ZHSf9_MdMFQYKm6YHJ1n-48" value="" style="ellipse;whiteSpace=wrap;html=1;aspect=fixed;fontSize=23;fontColor=#FF8000;strokeColor=#FF8000;strokeWidth=3;" parent="1" vertex="1">
                    <mxGeometry x="400" y="850" width="10" height="10" as="geometry"/>
                </mxCell>
                <mxCell id="ZHSf9_MdMFQYKm6YHJ1n-50" value="" style="ellipse;whiteSpace=wrap;html=1;aspect=fixed;fontSize=23;fontColor=#FF8000;strokeColor=#FF8000;strokeWidth=3;" parent="1" vertex="1">
                    <mxGeometry x="400" y="940" width="10" height="10" as="geometry"/>
                </mxCell>
            </root>
        </mxGraphModel>
    </diagram>
    <diagram id="NEHCBaeOo2X5-Io-KcpA" name="fast-forward-merge">
        <mxGraphModel dx="1601" dy="863" grid="1" gridSize="10" guides="1" tooltips="1" connect="1" arrows="1" fold="1" page="1" pageScale="1" pageWidth="850" pageHeight="1100" math="0" shadow="0">
            <root>
                <mxCell id="0"/>
                <mxCell id="1" parent="0"/>
                <mxCell id="WUAqtIk4T_7ZEwVAbhts-3" value="" style="html=1;strokeColor=#FF8000;strokeWidth=3;" edge="1" parent="1" source="WUAqtIk4T_7ZEwVAbhts-1" target="WUAqtIk4T_7ZEwVAbhts-2">
                    <mxGeometry relative="1" as="geometry"/>
                </mxCell>
                <mxCell id="WUAqtIk4T_7ZEwVAbhts-1" value="" style="ellipse;whiteSpace=wrap;html=1;aspect=fixed;strokeColor=#FF8000;strokeWidth=3;" vertex="1" parent="1">
                    <mxGeometry x="390" y="110" width="10" height="10" as="geometry"/>
                </mxCell>
                <mxCell id="WUAqtIk4T_7ZEwVAbhts-5" value="" style="edgeStyle=none;html=1;strokeColor=#FF8000;strokeWidth=3;" edge="1" parent="1" source="WUAqtIk4T_7ZEwVAbhts-2" target="WUAqtIk4T_7ZEwVAbhts-4">
                    <mxGeometry relative="1" as="geometry"/>
                </mxCell>
                <mxCell id="WUAqtIk4T_7ZEwVAbhts-17" value="" style="edgeStyle=none;html=1;strokeColor=#33FF33;strokeWidth=3;" edge="1" parent="1" source="WUAqtIk4T_7ZEwVAbhts-2" target="WUAqtIk4T_7ZEwVAbhts-16">
                    <mxGeometry relative="1" as="geometry"/>
                </mxCell>
                <mxCell id="WUAqtIk4T_7ZEwVAbhts-2" value="" style="ellipse;whiteSpace=wrap;html=1;aspect=fixed;strokeColor=#FF8000;strokeWidth=3;" vertex="1" parent="1">
                    <mxGeometry x="390" y="200" width="10" height="10" as="geometry"/>
                </mxCell>
                <mxCell id="WUAqtIk4T_7ZEwVAbhts-7" value="" style="edgeStyle=none;html=1;strokeColor=#FF8000;strokeWidth=3;" edge="1" parent="1" source="WUAqtIk4T_7ZEwVAbhts-4" target="WUAqtIk4T_7ZEwVAbhts-6">
                    <mxGeometry relative="1" as="geometry"/>
                </mxCell>
                <mxCell id="WUAqtIk4T_7ZEwVAbhts-4" value="" style="ellipse;whiteSpace=wrap;html=1;aspect=fixed;strokeColor=#FF8000;strokeWidth=3;" vertex="1" parent="1">
                    <mxGeometry x="390" y="290" width="10" height="10" as="geometry"/>
                </mxCell>
                <mxCell id="WUAqtIk4T_7ZEwVAbhts-9" value="" style="edgeStyle=none;html=1;strokeColor=#FF8000;strokeWidth=3;" edge="1" parent="1" source="WUAqtIk4T_7ZEwVAbhts-6" target="WUAqtIk4T_7ZEwVAbhts-8">
                    <mxGeometry relative="1" as="geometry"/>
                </mxCell>
                <mxCell id="WUAqtIk4T_7ZEwVAbhts-6" value="" style="ellipse;whiteSpace=wrap;html=1;aspect=fixed;strokeColor=#FF8000;strokeWidth=3;" vertex="1" parent="1">
                    <mxGeometry x="390" y="380" width="10" height="10" as="geometry"/>
                </mxCell>
                <mxCell id="WUAqtIk4T_7ZEwVAbhts-11" value="" style="edgeStyle=none;html=1;strokeColor=#FF8000;strokeWidth=3;" edge="1" parent="1" source="WUAqtIk4T_7ZEwVAbhts-8" target="WUAqtIk4T_7ZEwVAbhts-10">
                    <mxGeometry relative="1" as="geometry"/>
                </mxCell>
                <mxCell id="WUAqtIk4T_7ZEwVAbhts-8" value="" style="ellipse;whiteSpace=wrap;html=1;aspect=fixed;strokeColor=#FF8000;strokeWidth=3;" vertex="1" parent="1">
                    <mxGeometry x="390" y="470" width="10" height="10" as="geometry"/>
                </mxCell>
                <mxCell id="WUAqtIk4T_7ZEwVAbhts-13" value="" style="edgeStyle=none;html=1;strokeColor=#FF8000;strokeWidth=3;" edge="1" parent="1" source="WUAqtIk4T_7ZEwVAbhts-10" target="WUAqtIk4T_7ZEwVAbhts-12">
                    <mxGeometry relative="1" as="geometry"/>
                </mxCell>
                <mxCell id="WUAqtIk4T_7ZEwVAbhts-10" value="" style="ellipse;whiteSpace=wrap;html=1;aspect=fixed;strokeColor=#FF8000;strokeWidth=3;" vertex="1" parent="1">
                    <mxGeometry x="390" y="560" width="10" height="10" as="geometry"/>
                </mxCell>
                <mxCell id="WUAqtIk4T_7ZEwVAbhts-15" value="" style="edgeStyle=none;html=1;strokeColor=#FF8000;strokeWidth=3;" edge="1" parent="1" source="WUAqtIk4T_7ZEwVAbhts-12" target="WUAqtIk4T_7ZEwVAbhts-14">
                    <mxGeometry relative="1" as="geometry"/>
                </mxCell>
                <mxCell id="WUAqtIk4T_7ZEwVAbhts-12" value="" style="ellipse;whiteSpace=wrap;html=1;aspect=fixed;strokeColor=#FF8000;strokeWidth=3;" vertex="1" parent="1">
                    <mxGeometry x="390" y="650" width="10" height="10" as="geometry"/>
                </mxCell>
                <mxCell id="WUAqtIk4T_7ZEwVAbhts-14" value="" style="ellipse;whiteSpace=wrap;html=1;aspect=fixed;strokeColor=#FF8000;strokeWidth=3;" vertex="1" parent="1">
                    <mxGeometry x="390" y="740" width="10" height="10" as="geometry"/>
                </mxCell>
                <mxCell id="WUAqtIk4T_7ZEwVAbhts-21" value="" style="edgeStyle=none;html=1;strokeColor=#33FF33;strokeWidth=3;" edge="1" parent="1" source="WUAqtIk4T_7ZEwVAbhts-16" target="WUAqtIk4T_7ZEwVAbhts-20">
                    <mxGeometry relative="1" as="geometry"/>
                </mxCell>
                <mxCell id="WUAqtIk4T_7ZEwVAbhts-16" value="" style="ellipse;whiteSpace=wrap;html=1;aspect=fixed;strokeColor=#33FF33;strokeWidth=3;" vertex="1" parent="1">
                    <mxGeometry x="500" y="290" width="10" height="10" as="geometry"/>
                </mxCell>
                <mxCell id="WUAqtIk4T_7ZEwVAbhts-23" value="" style="edgeStyle=none;html=1;strokeColor=#33FF33;strokeWidth=3;" edge="1" parent="1" source="WUAqtIk4T_7ZEwVAbhts-20" target="WUAqtIk4T_7ZEwVAbhts-22">
                    <mxGeometry relative="1" as="geometry"/>
                </mxCell>
                <mxCell id="WUAqtIk4T_7ZEwVAbhts-20" value="" style="ellipse;whiteSpace=wrap;html=1;aspect=fixed;strokeColor=#33FF33;strokeWidth=3;" vertex="1" parent="1">
                    <mxGeometry x="500" y="380" width="10" height="10" as="geometry"/>
                </mxCell>
                <mxCell id="WUAqtIk4T_7ZEwVAbhts-25" value="" style="edgeStyle=none;html=1;strokeColor=#33FF33;strokeWidth=3;" edge="1" parent="1" source="WUAqtIk4T_7ZEwVAbhts-22" target="WUAqtIk4T_7ZEwVAbhts-24">
                    <mxGeometry relative="1" as="geometry"/>
                </mxCell>
                <mxCell id="WUAqtIk4T_7ZEwVAbhts-22" value="" style="ellipse;whiteSpace=wrap;html=1;aspect=fixed;strokeColor=#33FF33;strokeWidth=3;" vertex="1" parent="1">
                    <mxGeometry x="500" y="470" width="10" height="10" as="geometry"/>
                </mxCell>
                <mxCell id="WUAqtIk4T_7ZEwVAbhts-27" value="" style="edgeStyle=none;html=1;strokeColor=#33FF33;strokeWidth=3;entryX=1;entryY=0;entryDx=0;entryDy=0;" edge="1" parent="1" source="WUAqtIk4T_7ZEwVAbhts-24" target="WUAqtIk4T_7ZEwVAbhts-12">
                    <mxGeometry relative="1" as="geometry">
                        <mxPoint x="410" y="650" as="targetPoint"/>
                    </mxGeometry>
                </mxCell>
                <mxCell id="WUAqtIk4T_7ZEwVAbhts-24" value="" style="ellipse;whiteSpace=wrap;html=1;aspect=fixed;strokeColor=#33FF33;strokeWidth=3;" vertex="1" parent="1">
                    <mxGeometry x="500" y="560" width="10" height="10" as="geometry"/>
                </mxCell>
                <mxCell id="WUAqtIk4T_7ZEwVAbhts-28" value="&lt;font style=&quot;font-size: 19px;&quot; color=&quot;#ff8000&quot;&gt;Fast Forward Merge&amp;nbsp;&lt;/font&gt;" style="text;html=1;strokeColor=none;fillColor=none;align=center;verticalAlign=middle;whiteSpace=wrap;rounded=0;strokeWidth=3;" vertex="1" parent="1">
                    <mxGeometry x="140" y="10" width="220" height="60" as="geometry"/>
                </mxCell>
            </root>
        </mxGraphModel>
    </diagram>
    <diagram id="N9hOy2ztvLaj0IrUejj7" name="merge-commit">
        <mxGraphModel dx="466" dy="919" grid="1" gridSize="10" guides="1" tooltips="1" connect="1" arrows="1" fold="1" page="1" pageScale="1" pageWidth="850" pageHeight="1100" math="0" shadow="0">
            <root>
                <mxCell id="0"/>
                <mxCell id="1" parent="0"/>
                <mxCell id="L_hmq7rtOkhXUkgm4HVF-2" value="" style="ellipse;whiteSpace=wrap;html=1;aspect=fixed;strokeColor=#FF8000;strokeWidth=3;" vertex="1" parent="1">
                    <mxGeometry x="330" y="180" width="20" height="20" as="geometry"/>
                </mxCell>
                <mxCell id="L_hmq7rtOkhXUkgm4HVF-3" value="&lt;h1&gt;&lt;font color=&quot;#ff8000&quot;&gt;Merge commit&lt;/font&gt;&lt;/h1&gt;" style="text;html=1;strokeColor=none;fillColor=none;align=center;verticalAlign=middle;whiteSpace=wrap;rounded=0;strokeWidth=3;" vertex="1" parent="1">
                    <mxGeometry x="100" y="90" width="210" height="60" as="geometry"/>
                </mxCell>
                <mxCell id="L_hmq7rtOkhXUkgm4HVF-4" value="" style="ellipse;whiteSpace=wrap;html=1;aspect=fixed;strokeColor=#FF8000;strokeWidth=3;" vertex="1" parent="1">
                    <mxGeometry x="330" y="280" width="20" height="20" as="geometry"/>
                </mxCell>
                <mxCell id="L_hmq7rtOkhXUkgm4HVF-6" value="" style="endArrow=none;html=1;fontColor=#FF8000;strokeColor=#FF8000;strokeWidth=3;entryX=0.475;entryY=1;entryDx=0;entryDy=0;entryPerimeter=0;exitX=0.5;exitY=0;exitDx=0;exitDy=0;" edge="1" parent="1" source="L_hmq7rtOkhXUkgm4HVF-4" target="L_hmq7rtOkhXUkgm4HVF-2">
                    <mxGeometry width="50" height="50" relative="1" as="geometry">
                        <mxPoint x="339.5" y="270" as="sourcePoint"/>
                        <mxPoint x="339.5" y="210" as="targetPoint"/>
                    </mxGeometry>
                </mxCell>
                <mxCell id="L_hmq7rtOkhXUkgm4HVF-7" value="" style="ellipse;whiteSpace=wrap;html=1;aspect=fixed;strokeColor=#FF8000;strokeWidth=3;" vertex="1" parent="1">
                    <mxGeometry x="330" y="520" width="20" height="20" as="geometry"/>
                </mxCell>
                <mxCell id="L_hmq7rtOkhXUkgm4HVF-15" value="" style="ellipse;whiteSpace=wrap;html=1;aspect=fixed;strokeColor=#FF8000;strokeWidth=3;" vertex="1" parent="1">
                    <mxGeometry x="330" y="720" width="20" height="20" as="geometry"/>
                </mxCell>
                <mxCell id="L_hmq7rtOkhXUkgm4HVF-17" value="" style="endArrow=none;html=1;fontColor=#FF8000;strokeColor=#FF8000;strokeWidth=3;entryX=0.475;entryY=1;entryDx=0;entryDy=0;entryPerimeter=0;exitX=0.5;exitY=0;exitDx=0;exitDy=0;" edge="1" parent="1">
                    <mxGeometry width="50" height="50" relative="1" as="geometry">
                        <mxPoint x="340" y="380" as="sourcePoint"/>
                        <mxPoint x="339.5" y="300" as="targetPoint"/>
                    </mxGeometry>
                </mxCell>
                <mxCell id="L_hmq7rtOkhXUkgm4HVF-18" value="" style="endArrow=none;html=1;fontColor=#FF8000;strokeColor=#FF8000;strokeWidth=3;entryX=0.475;entryY=1;entryDx=0;entryDy=0;entryPerimeter=0;exitX=0.5;exitY=0;exitDx=0;exitDy=0;" edge="1" parent="1" source="L_hmq7rtOkhXUkgm4HVF-7">
                    <mxGeometry width="50" height="50" relative="1" as="geometry">
                        <mxPoint x="340" y="480" as="sourcePoint"/>
                        <mxPoint x="339.5" y="380" as="targetPoint"/>
                    </mxGeometry>
                </mxCell>
                <mxCell id="L_hmq7rtOkhXUkgm4HVF-19" value="" style="endArrow=none;html=1;fontColor=#FF8000;strokeColor=#FF8000;strokeWidth=3;exitX=0.5;exitY=0;exitDx=0;exitDy=0;" edge="1" parent="1">
                    <mxGeometry width="50" height="50" relative="1" as="geometry">
                        <mxPoint x="340" y="600" as="sourcePoint"/>
                        <mxPoint x="340" y="540" as="targetPoint"/>
                    </mxGeometry>
                </mxCell>
                <mxCell id="L_hmq7rtOkhXUkgm4HVF-20" value="" style="endArrow=none;html=1;fontColor=#FF8000;strokeColor=#FF8000;strokeWidth=3;entryX=0.475;entryY=1;entryDx=0;entryDy=0;entryPerimeter=0;exitX=0.5;exitY=0;exitDx=0;exitDy=0;" edge="1" parent="1" source="L_hmq7rtOkhXUkgm4HVF-15">
                    <mxGeometry width="50" height="50" relative="1" as="geometry">
                        <mxPoint x="340" y="680" as="sourcePoint"/>
                        <mxPoint x="339.5" y="600" as="targetPoint"/>
                    </mxGeometry>
                </mxCell>
                <mxCell id="L_hmq7rtOkhXUkgm4HVF-22" value="" style="endArrow=none;html=1;fontColor=#FF8000;strokeColor=#33FF33;strokeWidth=3;entryX=0.475;entryY=1;entryDx=0;entryDy=0;entryPerimeter=0;exitX=0.5;exitY=0;exitDx=0;exitDy=0;" edge="1" parent="1">
                    <mxGeometry width="50" height="50" relative="1" as="geometry">
                        <mxPoint x="480" y="480" as="sourcePoint"/>
                        <mxPoint x="479.5" y="400" as="targetPoint"/>
                    </mxGeometry>
                </mxCell>
                <mxCell id="L_hmq7rtOkhXUkgm4HVF-23" value="" style="ellipse;whiteSpace=wrap;html=1;aspect=fixed;strokeColor=#33FF33;strokeWidth=3;" vertex="1" parent="1">
                    <mxGeometry x="470" y="380" width="20" height="20" as="geometry"/>
                </mxCell>
                <mxCell id="L_hmq7rtOkhXUkgm4HVF-25" value="" style="endArrow=none;html=1;fontColor=#FF8000;strokeColor=#33FF33;strokeWidth=3;entryX=1;entryY=1;entryDx=0;entryDy=0;exitX=0;exitY=0;exitDx=0;exitDy=0;" edge="1" parent="1" source="L_hmq7rtOkhXUkgm4HVF-23" target="L_hmq7rtOkhXUkgm4HVF-4">
                    <mxGeometry width="50" height="50" relative="1" as="geometry">
                        <mxPoint x="400" y="330" as="sourcePoint"/>
                        <mxPoint x="399.5" y="250" as="targetPoint"/>
                    </mxGeometry>
                </mxCell>
                <mxCell id="L_hmq7rtOkhXUkgm4HVF-26" value="" style="ellipse;whiteSpace=wrap;html=1;aspect=fixed;strokeColor=#33FF33;strokeWidth=3;" vertex="1" parent="1">
                    <mxGeometry x="470" y="480" width="20" height="20" as="geometry"/>
                </mxCell>
                <mxCell id="L_hmq7rtOkhXUkgm4HVF-28" value="" style="ellipse;whiteSpace=wrap;html=1;aspect=fixed;strokeColor=#33FF33;strokeWidth=3;" vertex="1" parent="1">
                    <mxGeometry x="470" y="580" width="20" height="20" as="geometry"/>
                </mxCell>
                <mxCell id="L_hmq7rtOkhXUkgm4HVF-30" value="" style="ellipse;whiteSpace=wrap;html=1;aspect=fixed;strokeColor=#33FF33;strokeWidth=3;" vertex="1" parent="1">
                    <mxGeometry x="470" y="680" width="20" height="20" as="geometry"/>
                </mxCell>
                <mxCell id="L_hmq7rtOkhXUkgm4HVF-32" value="" style="ellipse;whiteSpace=wrap;html=1;aspect=fixed;strokeColor=#33FF33;strokeWidth=3;" vertex="1" parent="1">
                    <mxGeometry x="470" y="780" width="20" height="20" as="geometry"/>
                </mxCell>
                <mxCell id="L_hmq7rtOkhXUkgm4HVF-39" value="" style="endArrow=none;html=1;fontColor=#FF8000;strokeColor=#FF8000;strokeWidth=3;entryX=1;entryY=1;entryDx=0;entryDy=0;exitX=0;exitY=0.5;exitDx=0;exitDy=0;" edge="1" parent="1" source="L_hmq7rtOkhXUkgm4HVF-28">
                    <mxGeometry width="50" height="50" relative="1" as="geometry">
                        <mxPoint x="475.86" y="615.86" as="sourcePoint"/>
                        <mxPoint x="350.0021356237311" y="530.0021356237311" as="targetPoint"/>
                    </mxGeometry>
                </mxCell>
                <mxCell id="L_hmq7rtOkhXUkgm4HVF-41" value="" style="endArrow=none;html=1;fontColor=#FF8000;strokeColor=#FF8000;strokeWidth=3;entryX=1;entryY=1;entryDx=0;entryDy=0;exitX=0;exitY=0.5;exitDx=0;exitDy=0;" edge="1" parent="1">
                    <mxGeometry width="50" height="50" relative="1" as="geometry">
                        <mxPoint x="470" y="790" as="sourcePoint"/>
                        <mxPoint x="350.0021356237311" y="730.0021356237312" as="targetPoint"/>
                    </mxGeometry>
                </mxCell>
                <mxCell id="L_hmq7rtOkhXUkgm4HVF-42" value="" style="endArrow=none;html=1;fontColor=#FF8000;strokeColor=#33FF33;strokeWidth=3;entryX=0.475;entryY=1;entryDx=0;entryDy=0;entryPerimeter=0;exitX=0.5;exitY=0;exitDx=0;exitDy=0;" edge="1" parent="1">
                    <mxGeometry width="50" height="50" relative="1" as="geometry">
                        <mxPoint x="480" y="580" as="sourcePoint"/>
                        <mxPoint x="479.5" y="500" as="targetPoint"/>
                    </mxGeometry>
                </mxCell>
                <mxCell id="L_hmq7rtOkhXUkgm4HVF-43" value="" style="endArrow=none;html=1;fontColor=#FF8000;strokeColor=#33FF33;strokeWidth=3;entryX=0.475;entryY=1;entryDx=0;entryDy=0;entryPerimeter=0;exitX=0.5;exitY=0;exitDx=0;exitDy=0;" edge="1" parent="1">
                    <mxGeometry width="50" height="50" relative="1" as="geometry">
                        <mxPoint x="480" y="680" as="sourcePoint"/>
                        <mxPoint x="479.5" y="600" as="targetPoint"/>
                    </mxGeometry>
                </mxCell>
                <mxCell id="L_hmq7rtOkhXUkgm4HVF-44" value="" style="endArrow=none;html=1;fontColor=#FF8000;strokeColor=#33FF33;strokeWidth=3;entryX=0.475;entryY=1;entryDx=0;entryDy=0;entryPerimeter=0;exitX=0.5;exitY=0;exitDx=0;exitDy=0;" edge="1" parent="1">
                    <mxGeometry width="50" height="50" relative="1" as="geometry">
                        <mxPoint x="480" y="780" as="sourcePoint"/>
                        <mxPoint x="479.5" y="700" as="targetPoint"/>
                    </mxGeometry>
                </mxCell>
                <mxCell id="L_hmq7rtOkhXUkgm4HVF-47" value="" style="edgeStyle=none;rounded=1;html=1;strokeColor=#00FFFF;strokeWidth=3;fontColor=#FF8000;" edge="1" parent="1">
                    <mxGeometry relative="1" as="geometry">
                        <mxPoint x="620" y="670" as="sourcePoint"/>
                        <mxPoint x="510" y="610" as="targetPoint"/>
                    </mxGeometry>
                </mxCell>
                <mxCell id="L_hmq7rtOkhXUkgm4HVF-45" value="&lt;font style=&quot;font-size: 18px;&quot;&gt;Merge commits&lt;/font&gt;" style="text;html=1;strokeColor=none;fillColor=none;align=center;verticalAlign=middle;whiteSpace=wrap;rounded=0;strokeWidth=3;fontColor=#FF8000;" vertex="1" parent="1">
                    <mxGeometry x="600" y="680" width="140" height="30" as="geometry"/>
                </mxCell>
                <mxCell id="L_hmq7rtOkhXUkgm4HVF-49" value="" style="edgeStyle=none;rounded=1;html=1;strokeColor=#00FFFF;strokeWidth=3;fontColor=#FF8000;" edge="1" parent="1">
                    <mxGeometry relative="1" as="geometry">
                        <mxPoint x="630" y="720" as="sourcePoint"/>
                        <mxPoint x="520" y="790" as="targetPoint"/>
                    </mxGeometry>
                </mxCell>
            </root>
        </mxGraphModel>
    </diagram>
    <diagram id="3UGX7d8-zhSKPvJazmVh" name="rebase">
        <mxGraphModel dx="1601" dy="970" grid="1" gridSize="10" guides="1" tooltips="1" connect="1" arrows="1" fold="1" page="1" pageScale="1" pageWidth="850" pageHeight="1100" math="0" shadow="0">
            <root>
                <mxCell id="0"/>
                <mxCell id="1" parent="0"/>
                <mxCell id="65OSWcHvd6RBMtUSZaeS-1" value="" style="ellipse;whiteSpace=wrap;html=1;aspect=fixed;strokeColor=#33FF33;strokeWidth=3;fontSize=18;fontColor=#FF8000;" vertex="1" parent="1">
                    <mxGeometry x="110" y="390" width="20" height="20" as="geometry"/>
                </mxCell>
                <mxCell id="65OSWcHvd6RBMtUSZaeS-2" value="" style="ellipse;whiteSpace=wrap;html=1;aspect=fixed;strokeColor=#33FF33;strokeWidth=3;fontSize=18;fontColor=#FF8000;" vertex="1" parent="1">
                    <mxGeometry x="210" y="390" width="20" height="20" as="geometry"/>
                </mxCell>
                <mxCell id="65OSWcHvd6RBMtUSZaeS-6" value="" style="ellipse;whiteSpace=wrap;html=1;aspect=fixed;strokeColor=#33FF33;strokeWidth=3;fontSize=18;fontColor=#FF8000;" vertex="1" parent="1">
                    <mxGeometry x="410" y="390" width="20" height="20" as="geometry"/>
                </mxCell>
                <mxCell id="65OSWcHvd6RBMtUSZaeS-8" value="" style="ellipse;whiteSpace=wrap;html=1;aspect=fixed;strokeColor=#FF8000;strokeWidth=3;fontSize=18;fontColor=#FF8000;" vertex="1" parent="1">
                    <mxGeometry x="510" y="390" width="20" height="20" as="geometry"/>
                </mxCell>
                <mxCell id="65OSWcHvd6RBMtUSZaeS-10" value="" style="ellipse;whiteSpace=wrap;html=1;aspect=fixed;strokeColor=#FF8000;strokeWidth=3;fontSize=18;fontColor=#FF8000;" vertex="1" parent="1">
                    <mxGeometry x="610" y="390" width="20" height="20" as="geometry"/>
                </mxCell>
                <mxCell id="65OSWcHvd6RBMtUSZaeS-12" value="" style="endArrow=none;html=1;rounded=1;strokeColor=#33FF33;strokeWidth=3;fontSize=18;fontColor=#FF8000;" edge="1" parent="1">
                    <mxGeometry width="50" height="50" relative="1" as="geometry">
                        <mxPoint x="130" y="399.5" as="sourcePoint"/>
                        <mxPoint x="210" y="399.5" as="targetPoint"/>
                    </mxGeometry>
                </mxCell>
                <mxCell id="65OSWcHvd6RBMtUSZaeS-13" value="" style="endArrow=none;html=1;rounded=1;strokeColor=#FF8000;strokeWidth=3;fontSize=18;fontColor=#FF8000;" edge="1" parent="1">
                    <mxGeometry width="50" height="50" relative="1" as="geometry">
                        <mxPoint x="430" y="399.5" as="sourcePoint"/>
                        <mxPoint x="510" y="399.5" as="targetPoint"/>
                    </mxGeometry>
                </mxCell>
                <mxCell id="65OSWcHvd6RBMtUSZaeS-14" value="" style="endArrow=none;html=1;rounded=1;strokeColor=#33FF33;strokeWidth=3;fontSize=18;fontColor=#FF8000;exitX=1;exitY=0.5;exitDx=0;exitDy=0;entryX=0;entryY=0.5;entryDx=0;entryDy=0;" edge="1" parent="1" source="65OSWcHvd6RBMtUSZaeS-2" target="65OSWcHvd6RBMtUSZaeS-6">
                    <mxGeometry width="50" height="50" relative="1" as="geometry">
                        <mxPoint x="250" y="399.5" as="sourcePoint"/>
                        <mxPoint x="400" y="400" as="targetPoint"/>
                    </mxGeometry>
                </mxCell>
                <mxCell id="65OSWcHvd6RBMtUSZaeS-17" value="" style="ellipse;whiteSpace=wrap;html=1;aspect=fixed;strokeColor=#FF8000;strokeWidth=3;fontSize=18;fontColor=#FF8000;" vertex="1" parent="1">
                    <mxGeometry x="710" y="390" width="20" height="20" as="geometry"/>
                </mxCell>
                <mxCell id="65OSWcHvd6RBMtUSZaeS-19" value="" style="endArrow=none;html=1;rounded=1;strokeColor=#FF8000;strokeWidth=3;fontSize=18;fontColor=#FF8000;" edge="1" parent="1">
                    <mxGeometry width="50" height="50" relative="1" as="geometry">
                        <mxPoint x="530" y="399.5" as="sourcePoint"/>
                        <mxPoint x="610" y="399.5" as="targetPoint"/>
                    </mxGeometry>
                </mxCell>
                <mxCell id="65OSWcHvd6RBMtUSZaeS-20" value="" style="endArrow=none;html=1;rounded=1;strokeColor=#FF8000;strokeWidth=3;fontSize=18;fontColor=#FF8000;" edge="1" parent="1">
                    <mxGeometry width="50" height="50" relative="1" as="geometry">
                        <mxPoint x="630" y="399.5" as="sourcePoint"/>
                        <mxPoint x="710" y="399.5" as="targetPoint"/>
                    </mxGeometry>
                </mxCell>
                <mxCell id="65OSWcHvd6RBMtUSZaeS-21" value="&lt;font color=&quot;#33ff33&quot;&gt;master&amp;nbsp;&lt;/font&gt;" style="text;html=1;align=center;verticalAlign=middle;resizable=0;points=[];autosize=1;strokeColor=none;fillColor=none;fontSize=18;fontColor=#FF8000;" vertex="1" parent="1">
                    <mxGeometry x="360" y="520" width="80" height="40" as="geometry"/>
                </mxCell>
                <mxCell id="65OSWcHvd6RBMtUSZaeS-22" value="bugfix" style="text;html=1;align=center;verticalAlign=middle;resizable=0;points=[];autosize=1;strokeColor=none;fillColor=none;fontSize=18;fontColor=#FF8000;" vertex="1" parent="1">
                    <mxGeometry x="655" y="520" width="70" height="40" as="geometry"/>
                </mxCell>
                <mxCell id="65OSWcHvd6RBMtUSZaeS-24" value="" style="endArrow=classic;html=1;rounded=1;strokeColor=#FF8000;strokeWidth=3;fontSize=18;fontColor=#FF8000;exitX=0.595;exitY=-0.1;exitDx=0;exitDy=0;exitPerimeter=0;" edge="1" parent="1" source="65OSWcHvd6RBMtUSZaeS-22">
                    <mxGeometry width="50" height="50" relative="1" as="geometry">
                        <mxPoint x="665" y="470" as="sourcePoint"/>
                        <mxPoint x="715" y="420" as="targetPoint"/>
                    </mxGeometry>
                </mxCell>
                <mxCell id="65OSWcHvd6RBMtUSZaeS-25" value="" style="endArrow=classic;html=1;rounded=1;strokeColor=#33FF33;strokeWidth=3;fontSize=18;fontColor=#FF8000;exitX=0.595;exitY=-0.1;exitDx=0;exitDy=0;exitPerimeter=0;" edge="1" parent="1">
                    <mxGeometry width="50" height="50" relative="1" as="geometry">
                        <mxPoint x="400" y="520" as="sourcePoint"/>
                        <mxPoint x="418.3499999999999" y="424" as="targetPoint"/>
                    </mxGeometry>
                </mxCell>
                <mxCell id="65OSWcHvd6RBMtUSZaeS-26" value="Text" style="text;html=1;strokeColor=none;fillColor=none;align=center;verticalAlign=middle;whiteSpace=wrap;rounded=0;strokeWidth=3;fontSize=18;fontColor=#33FF33;" vertex="1" parent="1">
                    <mxGeometry x="480" y="390" width="60" height="30" as="geometry"/>
                </mxCell>
                <mxCell id="65OSWcHvd6RBMtUSZaeS-27" value="&lt;font style=&quot;font-size: 24px;&quot;&gt;Rebase&lt;/font&gt;" style="text;html=1;strokeColor=none;fillColor=none;align=center;verticalAlign=middle;whiteSpace=wrap;rounded=0;strokeWidth=3;fontSize=18;fontColor=#33FF33;" vertex="1" parent="1">
                    <mxGeometry x="100" y="270" width="130" height="50" as="geometry"/>
                </mxCell>
            </root>
        </mxGraphModel>
    </diagram>
</mxfile>